<svg xmlns="http://www.w3.org/2000/svg" xmlns:xlink="http://www.w3.org/1999/xlink" width="46" height="46" viewBox="0 0 46 46"><defs><clipPath id="a"><rect width="46" height="46" fill="none"/></clipPath></defs><g clip-path="url(#a)"><path d="M23,0A23,23,0,1,0,46,23,23,23,0,0,0,23,0m0,41.548A18.548,18.548,0,1,1,41.548,23,18.543,18.543,0,0,1,23,41.548M33.755,25.6H25.6v8.158a1.114,1.114,0,0,1-1.115,1.115H21.518A1.114,1.114,0,0,1,20.4,33.755V25.6H12.245a1.114,1.114,0,0,1-1.115-1.115V21.518A1.114,1.114,0,0,1,12.245,20.4H20.4V12.245a1.114,1.114,0,0,1,1.115-1.115h2.964A1.114,1.114,0,0,1,25.6,12.245V20.4h8.158a1.114,1.114,0,0,1,1.115,1.115v2.964A1.114,1.114,0,0,1,33.755,25.6Z" fill="#f73659"/></g></svg>