<svg xmlns="http://www.w3.org/2000/svg" xmlns:xlink="http://www.w3.org/1999/xlink" width="46" height="46" viewBox="0 0 46 46"><defs><clipPath id="a"><rect width="46" height="46" fill="none"/></clipPath></defs><g clip-path="url(#a)"><path d="M23,0A23,23,0,1,0,46,23,23,23,0,0,0,23,0m0,41.548A18.548,18.548,0,1,1,41.548,23,18.543,18.543,0,0,1,23,41.548m9.441-24.317L26.673,23l5.769,5.769a1.114,1.114,0,0,1,0,1.577l-2.1,2.1a1.114,1.114,0,0,1-1.577,0L23,26.673l-5.769,5.769a1.114,1.114,0,0,1-1.577,0l-2.1-2.1a1.114,1.114,0,0,1,0-1.577L19.327,23l-5.769-5.769a1.114,1.114,0,0,1,0-1.577l2.1-2.1a1.114,1.114,0,0,1,1.577,0L23,19.327l5.769-5.769a1.114,1.114,0,0,1,1.577,0l2.1,2.1A1.114,1.114,0,0,1,32.441,17.231Z" fill="#f73659"/></g></svg>