<svg xmlns="http://www.w3.org/2000/svg" xmlns:xlink="http://www.w3.org/1999/xlink" width="46" height="46" viewBox="0 0 46 46"><defs><clipPath id="a"><rect width="46" height="46" transform="translate(0.023 0.023)" fill="none"/></clipPath></defs><g transform="translate(-0.023 -0.023)" clip-path="url(#a)"><path d="M23.023,0A23.023,23.023,0,1,1,0,23.023,23.019,23.019,0,0,1,23.023,0M33.6,21.445,21.018,8.866a2.219,2.219,0,0,0-3.147,0l-1.578,1.578a2.219,2.219,0,0,0,0,3.147l9.432,9.432-9.432,9.432a2.219,2.219,0,0,0,0,3.147l1.578,1.578a2.219,2.219,0,0,0,3.147,0L33.6,24.6a2.23,2.23,0,0,0,0-3.156" fill="#f73659"/></g></svg>