<svg xmlns="http://www.w3.org/2000/svg" xmlns:xlink="http://www.w3.org/1999/xlink" width="71" height="64" viewBox="0 0 71 64">
  <defs>
    <clipPath id="clip-path">
      <rect id="Rectangle_9" data-name="Rectangle 9" width="71" height="64" transform="translate(-0.261 0.217)" fill="#f37923"/>
    </clipPath>
  </defs>
  <g id="Quote_left" data-name="Quote left" transform="translate(0.261 -0.217)" opacity="0.8" clip-path="url(#clip-path)">
    <path id="Tracé_3" data-name="Tracé 3" d="M64.809,31.287H53.635V22.348a8.947,8.947,0,0,1,8.939-8.939h1.117a3.344,3.344,0,0,0,3.352-3.352v-6.7A3.344,3.344,0,0,0,63.691,0H62.574A22.342,22.342,0,0,0,40.226,22.348V55.87a6.706,6.706,0,0,0,6.7,6.7H64.809a6.706,6.706,0,0,0,6.7-6.7V37.991a6.706,6.706,0,0,0-6.7-6.7m-40.226,0H13.409V22.348a8.947,8.947,0,0,1,8.939-8.939h1.117a3.344,3.344,0,0,0,3.352-3.352v-6.7A3.344,3.344,0,0,0,23.465,0H22.348A22.342,22.342,0,0,0,0,22.348V55.87a6.706,6.706,0,0,0,6.7,6.7H24.583a6.706,6.706,0,0,0,6.7-6.7V37.991a6.706,6.706,0,0,0-6.7-6.7" transform="translate(0.322 0.921)" fill="#f37923"/>
  </g>
</svg>
