<svg id="Instagram" xmlns="http://www.w3.org/2000/svg" xmlns:xlink="http://www.w3.org/1999/xlink" width="51.626" height="51.626" viewBox="0 0 51.626 51.626">
  <defs>
    <clipPath id="clip-path">
      <rect id="Rectangle_68" data-name="Rectangle 68" width="25.208" height="25.203" fill="#fff"/>
    </clipPath>
  </defs>
  <g id="Groupe_177" data-name="Groupe 177" transform="translate(13.16 13.216)">
    <g id="Groupe_176" data-name="Groupe 176" clip-path="url(#clip-path)">
      <path id="Tracé_976" data-name="Tracé 976" d="M12.607,6.14A6.462,6.462,0,1,0,19.069,12.6,6.451,6.451,0,0,0,12.607,6.14m0,10.663a4.2,4.2,0,1,1,4.2-4.2A4.209,4.209,0,0,1,12.607,16.8ZM20.84,5.875a1.507,1.507,0,1,1-1.507-1.507A1.5,1.5,0,0,1,20.84,5.875m4.28,1.53a7.459,7.459,0,0,0-2.036-5.281A7.508,7.508,0,0,0,17.8.089c-2.081-.118-8.318-.118-10.4,0a7.5,7.5,0,0,0-5.281,2.03A7.483,7.483,0,0,0,.089,7.4C-.03,9.48-.03,15.717.089,17.8a7.459,7.459,0,0,0,2.036,5.281,7.517,7.517,0,0,0,5.281,2.036c2.081.118,8.318.118,10.4,0a7.459,7.459,0,0,0,5.281-2.036A7.508,7.508,0,0,0,25.12,17.8c.118-2.081.118-8.312,0-10.393M22.432,20.03a4.253,4.253,0,0,1-2.4,2.4c-1.659.658-5.6.506-7.429.506s-5.776.146-7.429-.506a4.253,4.253,0,0,1-2.4-2.4c-.658-1.659-.506-5.6-.506-7.429s-.146-5.776.506-7.429a4.253,4.253,0,0,1,2.4-2.4c1.659-.658,5.6-.506,7.429-.506s5.776-.146,7.429.506a4.253,4.253,0,0,1,2.4,2.4c.658,1.659.506,5.6.506,7.429s.152,5.776-.506,7.429" transform="translate(0 0)" fill="#fff"/>
    </g>
  </g>
  <path id="Ellipse_1" data-name="Ellipse 1" d="M25.813,4.218a21.6,21.6,0,1,0,21.6,21.6,21.62,21.62,0,0,0-21.6-21.6m0-4.218A25.813,25.813,0,1,1,0,25.813,25.813,25.813,0,0,1,25.813,0Z" transform="translate(0 0)" fill="#fff"/>
</svg>
