<svg id="Twitter" xmlns="http://www.w3.org/2000/svg" xmlns:xlink="http://www.w3.org/1999/xlink" width="51.626" height="51.626" viewBox="0 0 51.626 51.626">
  <defs>
    <clipPath id="clip-path">
      <rect id="Rectangle_66" data-name="Rectangle 66" width="28.793" height="23.386" fill="#fff"/>
    </clipPath>
  </defs>
  <g id="Groupe_173" data-name="Groupe 173" transform="translate(11.416 14.116)">
    <g id="Groupe_172" data-name="Groupe 172" clip-path="url(#clip-path)">
      <path id="Tracé_974" data-name="Tracé 974" d="M25.834,5.828c.018.256.018.512.018.767,0,7.8-5.938,16.79-16.79,16.79A16.676,16.676,0,0,1,0,20.736a12.208,12.208,0,0,0,1.425.073,11.818,11.818,0,0,0,7.326-2.521A5.912,5.912,0,0,1,3.234,14.2a7.442,7.442,0,0,0,1.115.091,6.241,6.241,0,0,0,1.553-.2A5.9,5.9,0,0,1,1.169,8.295V8.222a5.943,5.943,0,0,0,2.667.749A5.91,5.91,0,0,1,2.01,1.078,16.774,16.774,0,0,0,14.177,7.253,6.662,6.662,0,0,1,14.031,5.9,5.907,5.907,0,0,1,24.244,1.864,11.618,11.618,0,0,0,27.99.438,5.885,5.885,0,0,1,25.4,3.691a11.83,11.83,0,0,0,3.4-.913A12.685,12.685,0,0,1,25.834,5.828Z" fill="#fff"/>
    </g>
  </g>
  <path id="Ellipse_2" data-name="Ellipse 2" d="M25.813,4.218a21.6,21.6,0,1,0,21.6,21.6,21.62,21.62,0,0,0-21.6-21.6m0-4.218A25.813,25.813,0,1,1,0,25.813,25.813,25.813,0,0,1,25.813,0Z" transform="translate(0 0)" fill="#fff"/>
</svg>
