<svg id="Icon" xmlns="http://www.w3.org/2000/svg" xmlns:xlink="http://www.w3.org/1999/xlink" width="36.464" height="32.412" viewBox="0 0 36.464 32.412">
  <defs>
    <clipPath id="clip-path">
      <rect id="Rectangle_2" data-name="Rectangle 2" width="36.464" height="32.412" fill="none"/>
    </clipPath>
  </defs>
  <g id="Groupe_1" data-name="Groupe 1" clip-path="url(#clip-path)">
    <path id="Tracé_1" data-name="Tracé 1" d="M17.427,15.859a1.1,1.1,0,0,0,1.614,0L25.935,8.63a5.247,5.247,0,0,0-.354-7.52,4.812,4.812,0,0,0-6.64.487l-.709.741-.7-.734a4.806,4.806,0,0,0-6.64-.494,5.253,5.253,0,0,0-.354,7.52Zm18.358,4.912a2.1,2.1,0,0,0-2.7,0l-5.849,4.678a4.03,4.03,0,0,1-2.532.886H17.218a1.013,1.013,0,1,1,0-2.026h4.957a2.107,2.107,0,0,0,2.108-1.684,2.028,2.028,0,0,0-2-2.368H12.154a7.45,7.45,0,0,0-4.691,1.665L4.52,24.31H1.013A1.016,1.016,0,0,0,0,25.323V31.4a1.016,1.016,0,0,0,1.013,1.013H23.6a4.056,4.056,0,0,0,2.532-.886l9.571-7.66a2.025,2.025,0,0,0,.082-3.1" transform="translate(0 0)" fill="#fff"/>
  </g>
</svg>
